<svg width="142" height="26" viewBox="0 0 142 26" fill="none" xmlns="http://www.w3.org/2000/svg">
<path d="M13 0L15.9187 8.98278H25.3637L17.7225 14.5344L20.6412 23.5172L13 17.9656L5.35879 23.5172L8.27747 14.5344L0.636266 8.98278H10.0813L13 0Z" fill="#FFC728"/>
<path d="M42 0L44.9187 8.98278H54.3637L46.7225 14.5344L49.6412 23.5172L42 17.9656L34.3588 23.5172L37.2775 14.5344L29.6363 8.98278H39.0813L42 0Z" fill="#FFC728"/>
<path d="M71 0L73.9187 8.98278H83.3637L75.7225 14.5344L78.6412 23.5172L71 17.9656L63.3588 23.5172L66.2775 14.5344L58.6363 8.98278H68.0813L71 0Z" fill="#FFC728"/>
<path d="M100 0L102.919 8.98278H112.364L104.723 14.5344L107.641 23.5172L100 17.9656L92.3588 23.5172L95.2775 14.5344L87.6363 8.98278H97.0813L100 0Z" fill="#FFC728"/>
<path d="M129 0L131.919 8.98278H141.364L133.723 14.5344L136.641 23.5172L129 17.9656L121.359 23.5172L124.277 14.5344L116.636 8.98278H126.081L129 0Z" fill="#FFC728"/>
</svg>
