<svg width="337" height="238" viewBox="0 0 337 238" fill="none" xmlns="http://www.w3.org/2000/svg">
<rect x="40.5" y="0.5" width="312" height="105" rx="9.5" stroke="#EFF2F7"/>
<g filter="url(#filter0_d_0_503)">
<rect x="58" y="18" width="70" height="70" rx="10" fill="#0F8CE9"/>
</g>
<path fill-rule="evenodd" clip-rule="evenodd" d="M103.586 53.0006C103.856 52.1148 104 51.1802 104 50.2143C104 44.5731 99.0751 40 93 40C86.9249 40 82 44.5731 82 50.2143C82 51.1802 82.1444 52.1148 82.4142 53.0006C78.8639 53.0465 76 55.9388 76 59.5C76 63.0899 78.9101 66 82.5 66H103.5C107.09 66 110 63.0899 110 59.5C110 55.9388 107.136 53.0465 103.586 53.0006Z" fill="#DBE5FA"/>
<rect x="158" y="75" width="190" height="10" rx="5" fill="#DBE5FA"/>
<rect x="158" y="75" width="92" height="10" rx="5" fill="#54BD95"/>
<rect x="158" y="53" width="104" height="6" rx="3" fill="#DBE5FA"/>
<rect x="158" y="21" width="190" height="16" rx="8" fill="#DBE5FA"/>
<rect x="0.5" y="132.5" width="347" height="105" rx="9.5" fill="white" stroke="#EFF2F7"/>
<g filter="url(#filter1_d_0_503)">
<rect x="18" y="150" width="70" height="70" rx="10" fill="white"/>
</g>
<rect x="118" y="207" width="228" height="10" rx="5" fill="#DBE5FA"/>
<rect x="118" y="207" width="163.2" height="10" rx="5" fill="#54BD95"/>
<rect x="118" y="185" width="124.8" height="6" rx="3" fill="#DBE5FA"/>
<rect x="118" y="153" width="228" height="16" rx="8" fill="#DBE5FA"/>
<defs>
<filter id="filter0_d_0_503" x="49" y="13" width="88" height="88" filterUnits="userSpaceOnUse" color-interpolation-filters="sRGB">
<feFlood flood-opacity="0" result="BackgroundImageFix"/>
<feColorMatrix in="SourceAlpha" type="matrix" values="0 0 0 0 0 0 0 0 0 0 0 0 0 0 0 0 0 0 127 0" result="hardAlpha"/>
<feOffset dy="4"/>
<feGaussianBlur stdDeviation="4.5"/>
<feComposite in2="hardAlpha" operator="out"/>
<feColorMatrix type="matrix" values="0 0 0 0 0 0 0 0 0 0 0 0 0 0 0 0 0 0 0.05 0"/>
<feBlend mode="normal" in2="BackgroundImageFix" result="effect1_dropShadow_0_503"/>
<feBlend mode="normal" in="SourceGraphic" in2="effect1_dropShadow_0_503" result="shape"/>
</filter>
<filter id="filter1_d_0_503" x="9" y="145" width="88" height="88" filterUnits="userSpaceOnUse" color-interpolation-filters="sRGB">
<feFlood flood-opacity="0" result="BackgroundImageFix"/>
<feColorMatrix in="SourceAlpha" type="matrix" values="0 0 0 0 0 0 0 0 0 0 0 0 0 0 0 0 0 0 127 0" result="hardAlpha"/>
<feOffset dy="4"/>
<feGaussianBlur stdDeviation="4.5"/>
<feComposite in2="hardAlpha" operator="out"/>
<feColorMatrix type="matrix" values="0 0 0 0 0 0 0 0 0 0 0 0 0 0 0 0 0 0 0.05 0"/>
<feBlend mode="normal" in2="BackgroundImageFix" result="effect1_dropShadow_0_503"/>
<feBlend mode="normal" in="SourceGraphic" in2="effect1_dropShadow_0_503" result="shape"/>
</filter>
</defs>
</svg>
