<svg width="190" height="190" viewBox="0 0 190 190" fill="none" xmlns="http://www.w3.org/2000/svg">
<mask id="path-1-inside-1_0_536" fill="white">
<path d="M190 95C190 82.5244 187.543 70.171 182.769 58.6451C177.994 47.1191 170.997 36.6464 162.175 27.8249C153.354 19.0033 142.881 12.0056 131.355 7.23144C119.829 2.45725 107.476 -5.45325e-07 95 0C82.5244 5.45325e-07 70.171 2.45725 58.6451 7.23145C47.1191 12.0056 36.6464 19.0033 27.8249 27.8249C19.0033 36.6464 12.0056 47.1191 7.23144 58.6451C2.45725 70.171 -1.09065e-06 82.5244 0 95H34.0131C34.0131 86.9911 35.5906 79.0606 38.6554 71.6613C41.7203 64.262 46.2126 57.5389 51.8757 51.8757C57.5389 46.2126 64.262 41.7203 71.6613 38.6554C79.0606 35.5906 86.9911 34.0131 95 34.0131C103.009 34.0131 110.939 35.5906 118.339 38.6554C125.738 41.7203 132.461 46.2126 138.124 51.8757C143.787 57.5389 148.28 64.262 151.345 71.6613C154.409 79.0606 155.987 86.9911 155.987 95H190Z"/>
</mask>
<path d="M190 95C190 82.5244 187.543 70.171 182.769 58.6451C177.994 47.1191 170.997 36.6464 162.175 27.8249C153.354 19.0033 142.881 12.0056 131.355 7.23144C119.829 2.45725 107.476 -5.45325e-07 95 0C82.5244 5.45325e-07 70.171 2.45725 58.6451 7.23145C47.1191 12.0056 36.6464 19.0033 27.8249 27.8249C19.0033 36.6464 12.0056 47.1191 7.23144 58.6451C2.45725 70.171 -1.09065e-06 82.5244 0 95H34.0131C34.0131 86.9911 35.5906 79.0606 38.6554 71.6613C41.7203 64.262 46.2126 57.5389 51.8757 51.8757C57.5389 46.2126 64.262 41.7203 71.6613 38.6554C79.0606 35.5906 86.9911 34.0131 95 34.0131C103.009 34.0131 110.939 35.5906 118.339 38.6554C125.738 41.7203 132.461 46.2126 138.124 51.8757C143.787 57.5389 148.28 64.262 151.345 71.6613C154.409 79.0606 155.987 86.9911 155.987 95H190Z" stroke="#52459F" stroke-width="68" mask="url(#path-1-inside-1_0_536)"/>
<mask id="path-2-inside-2_0_536" fill="white">
<path d="M190 95C190 69.8044 179.991 45.6408 162.175 27.8249C144.359 10.0089 120.196 1.90221e-06 95 0C69.8044 -1.90221e-06 45.6408 10.0089 27.8249 27.8248C10.0089 45.6408 3.80443e-06 69.8044 0 95L34.03 95C34.03 78.8297 40.4536 63.3218 51.8877 51.8877C63.3218 40.4536 78.8298 34.03 95 34.03C111.17 34.03 126.678 40.4536 138.112 51.8877C149.546 63.3218 155.97 78.8298 155.97 95H190Z"/>
</mask>
<path d="M190 95C190 69.8044 179.991 45.6408 162.175 27.8249C144.359 10.0089 120.196 1.90221e-06 95 0C69.8044 -1.90221e-06 45.6408 10.0089 27.8249 27.8248C10.0089 45.6408 3.80443e-06 69.8044 0 95L34.03 95C34.03 78.8297 40.4536 63.3218 51.8877 51.8877C63.3218 40.4536 78.8298 34.03 95 34.03C111.17 34.03 126.678 40.4536 138.112 51.8877C149.546 63.3218 155.97 78.8298 155.97 95H190Z" stroke="#0F8CE9" stroke-width="68" mask="url(#path-2-inside-2_0_536)"/>
<mask id="path-3-inside-3_0_536" fill="white">
<path d="M190 95C190 75.391 183.932 56.2623 172.629 40.2389C161.325 24.2155 145.341 12.0824 126.868 5.50453L115.452 37.5627C127.308 41.7844 137.567 49.5712 144.821 59.8549C152.076 70.1386 155.97 82.4151 155.97 95H190Z"/>
</mask>
<path d="M190 95C190 75.391 183.932 56.2623 172.629 40.2389C161.325 24.2155 145.341 12.0824 126.868 5.50453L115.452 37.5627C127.308 41.7844 137.567 49.5712 144.821 59.8549C152.076 70.1386 155.97 82.4151 155.97 95H190Z" stroke="#54BD95" stroke-width="68" mask="url(#path-3-inside-3_0_536)"/>
<mask id="path-4-inside-4_0_536" fill="white">
<path d="M190 95C190 76.2465 184.45 57.9126 174.048 42.3081C163.646 26.7037 148.859 14.5269 131.549 7.312L118.457 38.7228C129.566 43.3532 139.056 51.1681 145.732 61.1829C152.408 71.1977 155.97 82.9642 155.97 95H190Z"/>
</mask>
<path d="M190 95C190 76.2465 184.45 57.9126 174.048 42.3081C163.646 26.7037 148.859 14.5269 131.549 7.312L118.457 38.7228C129.566 43.3532 139.056 51.1681 145.732 61.1829C152.408 71.1977 155.97 82.9642 155.97 95H190Z" stroke="#FEE900" stroke-width="68" mask="url(#path-4-inside-4_0_536)"/>
</svg>
