<svg width="84" height="84" viewBox="0 0 84 84" fill="none" xmlns="http://www.w3.org/2000/svg">
<g filter="url(#filter0_d_0_479)">
<rect x="9" y="5" width="66" height="66" rx="10" fill="white"/>
</g>
<path fill-rule="evenodd" clip-rule="evenodd" d="M52.5858 38.0006C52.8556 37.1148 53 36.1802 53 35.2143C53 29.5731 48.0751 25 42 25C35.9249 25 31 29.5731 31 35.2143C31 36.1802 31.1444 37.1148 31.4142 38.0006C27.8639 38.0465 25 40.9388 25 44.5C25 48.0899 27.9101 51 31.5 51H52.5C56.0899 51 59 48.0899 59 44.5C59 40.9388 56.1361 38.0465 52.5858 38.0006Z" fill="#54BD95"/>
<defs>
<filter id="filter0_d_0_479" x="0" y="0" width="84" height="84" filterUnits="userSpaceOnUse" color-interpolation-filters="sRGB">
<feFlood flood-opacity="0" result="BackgroundImageFix"/>
<feColorMatrix in="SourceAlpha" type="matrix" values="0 0 0 0 0 0 0 0 0 0 0 0 0 0 0 0 0 0 127 0" result="hardAlpha"/>
<feOffset dy="4"/>
<feGaussianBlur stdDeviation="4.5"/>
<feComposite in2="hardAlpha" operator="out"/>
<feColorMatrix type="matrix" values="0 0 0 0 0 0 0 0 0 0 0 0 0 0 0 0 0 0 0.05 0"/>
<feBlend mode="normal" in2="BackgroundImageFix" result="effect1_dropShadow_0_479"/>
<feBlend mode="normal" in="SourceGraphic" in2="effect1_dropShadow_0_479" result="shape"/>
</filter>
</defs>
</svg>
