<svg width="33" height="39" viewBox="0 0 33 39" fill="none" xmlns="http://www.w3.org/2000/svg">
<path d="M9.48016 32.7573C14.533 35.8971 20.8853 34.197 23.699 28.9519C24.68 27.1231 25.054 25.0272 25.0408 23.1056L24.8249 8.71364C24.8265 7.78327 24.2614 6.96647 23.5518 6.52553C22.8421 6.08455 21.9391 5.9891 21.1546 6.43292L9.46954 13.4213C7.91054 14.3662 6.43414 15.7348 5.43608 17.5953C2.62249 22.8403 4.42727 29.6175 9.48016 32.7573ZM16.0681 20.4764C17.9033 21.6167 18.5674 24.1038 17.5455 26.0088C16.5236 27.9138 14.1903 28.5382 12.3551 27.3979C10.5199 26.2575 9.85577 23.7705 10.8777 21.8655C11.903 19.9541 14.2329 19.336 16.0681 20.4764Z" fill="#0F8CE9"/>
</svg>
