<svg width="40" height="40" viewBox="0 0 40 40" fill="none" xmlns="http://www.w3.org/2000/svg">
<path d="M26.9507 16.5527H13.0493C12.2605 16.5527 11.6211 17.1922 11.6211 17.9809C11.6211 18.7697 12.2605 19.4091 13.0493 19.4091V20.3613C13.0493 21.1501 13.6888 21.7895 14.4775 21.7895C15.2663 21.7895 15.9057 21.1501 15.9057 20.3613V19.4091H24.0941V20.3613C24.0941 21.1501 24.7336 21.7895 25.5223 21.7895C26.3111 21.7895 26.9505 21.1501 26.9505 20.3613V19.4091C27.7393 19.4091 28.3787 18.7697 28.3787 17.9809C28.3787 17.1922 27.7395 16.5527 26.9507 16.5527Z" fill="#54BD95"/>
<path d="M20 9.88763C18.4224 9.88763 17.1436 11.1665 17.1436 12.744H22.8565C22.8564 11.1665 21.5776 9.88763 20 9.88763Z" fill="#54BD95"/>
<path d="M20 0C8.9543 0 0 8.9543 0 20C0 31.0457 8.9543 40 20 40C31.0457 40 40 31.0457 40 20C40 8.9543 31.0457 0 20 0ZM32.1875 28.5498C32.1875 30.1273 30.9086 31.4062 29.3311 31.4062H10.6689C9.09141 31.4062 7.8125 30.1273 7.8125 28.5498V15.6006C7.8125 14.023 9.09141 12.7442 10.6689 12.7442H14.287C14.2871 9.58898 16.8448 7.03125 20 7.03125C23.1552 7.03125 25.7129 9.58898 25.7129 12.7441H29.331C30.9086 12.7441 32.1874 14.023 32.1874 15.6005V28.5498H32.1875Z" fill="#54BD95"/>
</svg>
