<svg width="40" height="40" viewBox="0 0 40 40" fill="none" xmlns="http://www.w3.org/2000/svg">
<g clip-path="url(#clip0_29241_343)">
<path d="M31.8999 21.5667C31.9665 21.0667 31.9999 20.55 31.9999 20C31.9999 19.4667 31.9665 18.9333 31.8832 18.4333L35.2665 15.8C35.5665 15.5667 35.6499 15.1167 35.4665 14.7833L32.2665 9.25C32.0665 8.88333 31.6499 8.76667 31.2832 8.88333L27.2999 10.4833C26.4665 9.85 25.5832 9.31667 24.5999 8.91667L23.9999 4.68333C23.9332 4.28333 23.5999 4 23.1999 4H16.7999C16.3999 4 16.0832 4.28333 16.0165 4.68333L15.4165 8.91667C14.4332 9.31667 13.5332 9.86667 12.7165 10.4833L8.73319 8.88333C8.36652 8.75 7.94986 8.88333 7.74986 9.25L4.56652 14.7833C4.36652 15.1333 4.43319 15.5667 4.76652 15.8L8.14986 18.4333C8.06652 18.9333 7.99986 19.4833 7.99986 20C7.99986 20.5167 8.03319 21.0667 8.11652 21.5667L4.73319 24.2C4.43319 24.4333 4.34986 24.8833 4.53319 25.2167L7.73319 30.75C7.93319 31.1167 8.34986 31.2333 8.71652 31.1167L12.6999 29.5167C13.5332 30.15 14.4165 30.6833 15.3999 31.0833L15.9999 35.3167C16.0832 35.7167 16.3999 36 16.7999 36H23.1999C23.5999 36 23.9332 35.7167 23.9832 35.3167L24.5832 31.0833C25.5665 30.6833 26.4665 30.15 27.2832 29.5167L31.2665 31.1167C31.6332 31.25 32.0499 31.1167 32.2499 30.75L35.4499 25.2167C35.6499 24.85 35.5665 24.4333 35.2499 24.2L31.8999 21.5667ZM19.9999 26C16.6999 26 13.9999 23.3 13.9999 20C13.9999 16.7 16.6999 14 19.9999 14C23.2999 14 25.9999 16.7 25.9999 20C25.9999 23.3 23.2999 26 19.9999 26Z" fill="#388E3C"/>
</g>
<defs>
<clipPath id="clip0_29241_343">
<rect width="40" height="40" fill="white"/>
</clipPath>
</defs>
</svg>
